<svg xmlns="http://www.w3.org/2000/svg" viewBox="0 0 1920 540"><defs><style>.cls-1{fill:#fff;}</style></defs><g id="Layer_1" data-name="Layer 1"><path class="cls-1" d="M513.35,217.06V8.55h77.73q29.49,0,46.17,15.25t16.68,38.65q0,17.77-8,29.47t-19.36,16.15q13.71,3.86,24.58,16.58T662,158.12q0,26.37-18.77,42.66t-50.33,16.28ZM587.81,32.24H539.56V98h50q18.17,0,27.85-9.19t9.68-23.69q0-15.4-10.42-24.14T587.81,32.24Zm4.76,89.16h-53v72h51.52q19.95,0,31.87-9.48t11.91-26.36q0-16.59-11.46-26.36T592.57,121.4Z"/><path class="cls-1" d="M823.39,217.06H798.67V199.59q-6.25,8.59-18,14.66t-27.55,6.07q-23.82,0-39.91-14.81t-16.08-43.83V67.79h25.62v90.33q0,19.56,9.53,29.33t25.61,9.77A41.08,41.08,0,0,0,786,186.85q11.78-10.36,11.77-31.1v-88h25.61Z"/><path class="cls-1" d="M940.14,67.19h7.74v24h-7.74q-20.55,0-33.51,11.26t-13,32.58v82H868.06V67.79h24.73v22.8Q907.67,67.21,940.14,67.19Z"/><path class="cls-1" d="M1063.74,118.14q0-15.11-9.38-23.11t-24.57-8q-27.1,0-34.55,19.84H970.52q3.86-18.36,19.5-30.36t40.36-12q26.5,0,42.59,14.36t16.08,39.25v98.92h-24.12V199.29q-17,21-48.25,21-22.33,0-37.08-12.59t-14.74-33.32q0-21.61,15.78-33.91t43.19-12.29h39.91Zm-43.78,80q18.45,0,31.12-10.37t12.66-27v-11h-38.42q-15.79,0-25.17,6.22t-9.38,18.07q0,11.55,8,17.77T1020,198.11Z"/><path class="cls-1" d="M1132.24,67.79H1157V85.26q6-8.58,17.87-14.66t27.7-6.07q23.82,0,39.91,14.81t16.08,43.83v93.89h-25.61V126.73q0-19.56-9.54-29.33t-25.61-9.77A41.12,41.12,0,0,0,1169.62,98q-11.77,10.36-11.77,31.1v88h-25.61Z"/><path class="cls-1" d="M656.61,413h26.8a76.08,76.08,0,0,1-7.74,23.52,91.87,91.87,0,0,1-16.09,22q-10.12,10.44-26.5,16.83a98.22,98.22,0,0,1-36,6.41q-41.7,0-68.06-30.23t-26.36-77.89q0-47.36,26.21-77.73T597,265.53q35.75,0,58.22,19.36T682.82,334H656q-5.65-19.66-20.1-31.72T597,290.25q-30.67,0-49,23.23t-18.31,60.16q0,36.63,18.17,60T596.74,457q25.32,0,40.8-13.56T656.61,413Z"/><path class="cls-1" d="M730.62,347q19.8-21.89,52.27-21.89T835.16,347q19.8,21.9,19.8,56.45t-19.8,56.43q-19.81,21.9-52.27,21.9t-52.27-21.9Q710.81,438,710.81,403.43T730.62,347Zm18.76,96.36q12.36,15.18,33.51,15.18t33.5-15.18q12.36-15.19,12.36-39.91t-12.36-39.92q-12.36-15.18-33.5-15.18t-33.51,15.18Q737,378.71,737,403.43T749.38,443.34Z"/><path class="cls-1" d="M890.7,328.37h24.72v17.57q6-8.62,17.87-14.74t27.7-6.11q23.82,0,39.91,14.89T1017,384.07v94.41H991.37V387.64q0-19.67-9.53-29.49t-25.61-9.82a41,41,0,0,0-28.15,10.42Q916.31,369.17,916.31,390v88.46H890.7Z"/><path class="cls-1" d="M1076.55,436.48q2.37,10.72,12.36,16.68t25.16,6q15.2,0,24-5.81t8.78-16.83q0-17.26-22.93-20.25l-26.8-3.57q-42.6-5.66-42.59-40.81,0-20,16.08-33.35t40.21-13.41q23.82,0,39.46,11.32T1169.47,368h-25q-7.14-20.25-33.65-20.25-14,0-22.34,6.4t-8.34,15.94q0,16.08,21.45,18.76l27.1,3.58q43.77,6,43.78,42.58,0,22-16.38,34.41t-41.4,12.36q-24.42,0-42.59-11t-20.85-34.26Z"/><path class="cls-1" d="M1332.68,478.48H1308V460.91q-6.26,8.64-18,14.74t-27.55,6.11q-23.84,0-39.91-14.9t-16.08-44.08V328.37H1232v90.84q0,19.67,9.53,29.49t25.62,9.82a41,41,0,0,0,28.14-10.42q11.76-10.43,11.77-31.27V328.37h25.61Z"/><path class="cls-1" d="M1403,262V478.48h-25.62V262Z"/><path class="cls-1" d="M1481,431.72q0,13.69,6.1,18.76t16.83,5.07h10.13v22.93h-14.3q-44.38,0-44.38-45.57V351.3h-25V328.37h25V288.46H1481v39.91h33.06V351.3H1481Z"/><path class="cls-1" d="M1548,270.44a18.39,18.39,0,0,1,25,0,17.63,17.63,0,0,1,0,24.72,18.36,18.36,0,0,1-25,0,17.63,17.63,0,0,1,0-24.72Zm25.31,57.93V478.48h-25.61V328.37Z"/><path class="cls-1" d="M1618,328.37h24.72v17.57q6-8.62,17.87-14.74t27.7-6.11q23.82,0,39.91,14.89t16.08,44.09v94.41h-25.61V387.64q0-19.67-9.53-29.49t-25.62-9.82a41,41,0,0,0-28.14,10.42q-11.78,10.42-11.77,31.27v88.46H1618Z"/><path class="cls-1" d="M1895.28,328.37H1920V469.25q0,32.76-18.76,52T1850,540.43q-29.19,0-45.87-13.55t-18.46-32H1811q8,22.33,39.32,22.34,21.14,0,32.61-12.81t11.47-35.14v-13.7q-15.2,23.22-48.25,23.23-27.41,0-47.51-20.26t-20.1-56.58q0-36.65,20.25-56.74T1847,325.09q17.57,0,30.08,6.71t18.17,16.53Zm-45.87,127.18q20.85,0,33.36-14.6t12.51-38.42v-1.19q0-23.82-12.51-38.42t-33.36-14.59q-20,0-32.31,15t-12.36,38.57q0,23.52,12.36,38.57T1849.41,455.55Z"/><polygon class="cls-1" points="0 0 57.31 113.99 0 227.97 286.55 227.97 401.17 113.99 286.55 0 0 0"/><polygon class="cls-1" points="0 256.47 57.31 370.46 0 484.45 286.55 484.45 401.17 370.46 286.55 256.47 0 256.47"/></g></svg>